PathFileType	4	(X/Y/Z)	Patient4_TMGait_0pt2_03_left_16.trc.trc
DataRate	CameraRate	NumFrames	NumMarkers	Units	OrigDataRate	OrigDataStartFrame	OrigNumFrames
48.109965635739	48.109965635739	6	33	mm	48.109965635739	71	       141
Frame#	Time	Sacral			L.Shoulder			Chest			R.Shoulder			Neck			R.ASIS			L.ASIS			R.Thigh.Superior			R.Thigh.Lateral			R.Thigh.Inferior			R.Patella			L.Thigh.Superior			L.Thigh.Lateral			L.Thigh.Inferior			L.Patella			L.Shank.Superior			L.Shank.Lateral			L.Shank.Inferior			R.Shank.Superior			R.Shank.Lateral			R.Shank.Inferior			R.Heel			R.Midfoot.Superior			R.Midfoot.Lateral			R.Toe			L.Heel			L.Midfoot.Lateral			L.Midfoot.Superior			L.Toe			L.Elbow			L.Wrist			R.Elbow			R.Wrist			
		X1	Y1	Z1	X2	Y2	Z2	X3	Y3	Z3	X4	Y4	Z4	X5	Y5	Z5	X6	Y6	Z6	X7	Y7	Z7	X8	Y8	Z8	X9	Y9	Z9	X10	Y10	Z10	X11	Y11	Z11	X12	Y12	Z12	X13	Y13	Z13	X14	Y14	Z14	X15	Y15	Z15	X16	Y16	Z16	X17	Y17	Z17	X18	Y18	Z18	X19	Y19	Z19	X20	Y20	Z20	X21	Y21	Z21	X22	Y22	Z22	X23	Y23	Z23	X24	Y24	Z24	X25	Y25	Z25	X26	Y26	Z26	X27	Y27	Z27	X28	Y28	Z28	X29	Y29	Z29	X30	Y30	Z30	X31	Y31	Z31	X32	Y32	Z32	X33	Y33	Z33	

71	34.805000000000	831.882363196916	1018.737188520001	393.311876158977	1077.478614807671	1433.613887318816	262.028048481579	1113.884681300579	1370.415225540156	449.439856945623	981.295752157993	1454.852906937927	582.897819070113	999.464216608931	1502.002306528942	403.284891201025	1016.353704645028	955.045830947515	575.258357571420	1079.777384339403	962.794452525723	307.619002140707	1081.882462913690	760.952655901528	561.021679864222	1005.874198432661	647.523311463664	618.444832313628	1097.277549691620	597.422385598729	552.535184725549	1113.391105844870	511.531661104753	568.133529054854	1088.879480083653	739.539317548843	338.769536800591	985.169109276220	623.504576419133	259.785540147119	1054.803416676908	548.974129968695	338.021143258652	1044.784383939362	483.579615287350	346.681563257245	1017.088899322949	414.349630955300	336.541755263904	928.488561007074	301.027707202034	282.700761464739	968.281649205975	190.564268831656	361.350748200216	1084.642741630843	423.393849365868	579.673647902564	1011.552460524411	323.260014891231	647.326607217021	1065.202852675807	224.031111351583	599.931788548683	942.966638170541	47.103634280924	582.670067765801	1113.293839376894	111.328185151202	617.552618785421	1029.485617959595	41.108409037018	653.602771044865	1234.648687281310	66.777074556809	639.212720447329	834.531361292650	38.457649139716	403.892026791281	909.197628602016	35.597547163492	323.428807781555	993.162764925449	95.563796461076	351.547664718055	1121.726068444329	41.842555348670	323.961064319310	1192.827216821013	1106.392851054592	146.493531314549	1447.668850650089	1105.045362429017	176.671715990661	798.527445831719	1153.561418913346	649.422891084908	762.357937275141	893.220119453790	643.361779953391	
72	34.825785714286	831.768207458699	1017.111328901995	396.340534010875	1075.279471242779	1432.002083746068	265.067596228318	1112.159563499427	1369.571103193785	452.645657293535	979.558462059077	1454.018657490484	586.147805426970	997.451608743915	1500.758829541964	406.169778475674	1016.252631580579	952.653782601121	577.927370993683	1079.768590367805	962.791215486722	310.356967885248	1081.513761282505	758.225186279387	563.268327396557	1004.821243240508	644.438409418581	619.338172149638	1096.937664261834	594.985226254009	553.844084463078	1112.143967864237	509.632764853420	568.001024189548	1087.158831983955	738.603361897634	339.824322371021	981.496624993072	624.116580880437	260.430780667321	1049.906280398276	548.410404761824	338.012485531779	1039.203136164586	483.469605585491	346.459897564196	1011.704675732661	414.806273657660	336.387494260892	923.294503264650	301.305321964526	282.508046016041	963.637531446303	190.863408660796	361.115963546716	1084.715734368127	421.014562508585	579.685722113197	1012.916914397615	320.179753267172	647.512535291142	1066.875937615668	221.561998156198	599.408041815737	945.512694214032	45.043313544405	582.881212519914	1115.886114997485	109.005895770927	615.966145791205	1032.490014611683	39.325053559932	653.146046206976	1237.428453102618	64.523006061840	636.822719680616	830.351587413329	38.470409674238	403.888518176003	905.004749077133	35.563879270284	323.417563418919	988.978906525295	95.538979807223	351.465023384782	1117.542041794041	41.824117108796	323.945307233945	1191.118595732577	1104.199163771582	150.891452282365	1445.892008352968	1104.576157118097	180.355872216020	798.389414699409	1151.669876113869	652.873605868165	763.086414777068	891.134202071376	646.440663738101	
73	34.846571428571	831.726932166561	1015.401454429827	399.823111873703	1072.870883117551	1430.389755859515	268.484778246493	1110.521854651731	1368.696173272344	456.166153289292	978.037016151702	1453.075762023326	589.900076110646	995.430260297692	1499.445750343234	409.546568835817	1016.596317062460	950.113799734292	580.682138148021	1079.732067676871	962.912381842687	313.140082720267	1081.996534672109	755.606633140661	565.041260329701	1004.939176767067	641.344800691793	619.966724632442	1097.651328174324	592.609081415693	554.682561397341	1111.873642147523	507.438068975304	567.567407963330	1085.575438108093	737.723333530834	340.829070231548	977.884417583541	624.753467325822	261.215027161495	1045.155207088983	547.911742665954	338.093594365364	1033.904821317823	483.372058066197	346.329723145872	1006.436681953454	415.279164120857	336.351349164386	918.161854223870	301.652839552887	282.382832016068	959.035914544757	191.189336098783	360.900982050393	1085.138387555481	418.402786381965	579.392450428702	1013.936331919733	317.405116558073	647.336685679109	1067.394382092777	219.074439930576	598.457551494512	945.685518907045	43.811359503515	582.548494594737	1116.319536615306	106.677968619637	614.003179092148	1032.931964295325	38.140261770278	652.387171896914	1237.799637161224	61.738891822211	634.438014268666	826.162173846384	38.504728186063	403.873616357505	900.808613162229	35.541483554790	323.401389017126	984.794043734611	95.527911057920	351.370362132427	1113.347031313578	41.809709218942	323.926066115064	1188.770646361675	1101.840606481687	155.475500392972	1443.533577066066	1102.921172067654	183.973654579136	798.473948361420	1149.740401878478	657.218810072795	764.119792882491	889.016745967579	650.716013039743	
74	34.867357142857	831.731730417560	1013.748386360054	403.729011968229	1070.362338844510	1428.888540332071	272.256364647840	1109.023872981236	1367.879728516386	459.977063781156	976.779749402545	1452.143115036495	594.104574438866	993.468766796764	1498.169638504722	413.378039015722	1017.338141114787	947.611301366090	583.520013046034	1079.626263207236	963.169678122897	315.965062408894	1083.214785760715	753.225336442033	566.360309424241	1006.113449379475	638.436752580982	620.481467922743	1099.180782584279	590.406078983478	555.123882657456	1112.418871894925	505.120385544778	566.975406091320	1084.040311437878	736.924330078206	341.867515182082	974.308842942161	625.421553228230	262.188976730570	1040.547112028949	547.498518781457	338.343324973794	1028.878786866356	483.297479832958	346.364179361806	1001.297157394535	415.770949557910	336.482463656271	913.092926785516	302.082296330549	282.370577631395	954.482394341028	191.541411501898	360.728044308368	1085.830745245809	415.728543515050	578.934090085978	1014.672926257460	314.973123895837	647.001759085072	1066.949835017974	216.651141705008	597.276404790891	943.925371569038	43.176644159511	581.895197168374	1114.954409264767	104.474906345255	611.918744154413	1031.297596114536	37.430086559070	651.528867535623	1236.240909927603	58.775036919590	632.258718987381	821.963799377782	38.564163207795	403.850013966495	896.608274083756	35.536107024679	323.384457791815	980.608351106180	95.533545542850	351.269130216672	1109.139178066983	41.800550676556	323.905022824220	1185.799266445687	1099.416841913107	160.204111243688	1440.608205894276	1100.221289810608	187.522660511160	798.713278965213	1147.989885616970	662.367036704124	765.309861403594	887.091776448984	656.112324198554	
75	34.888142857143	831.745104027263	1012.273837862393	408.028755530971	1067.861228177876	1427.588729243904	276.342034736386	1107.718356217070	1367.184782227023	464.033704634564	975.847071546264	1451.315824416041	598.696926908961	991.639288168892	1497.020557672229	417.609810935737	1018.404397588899	945.312282676274	586.450182969360	1079.395598984810	963.543623747633	318.836566887680	1084.982065001199	751.178343056297	567.309954329137	1008.143476960688	635.871830161629	621.056300724351	1101.231603930902	588.462537320357	555.288393170715	1113.549691727926	502.841712722006	566.378822023297	1082.477261189243	736.227563016713	343.034101048973	970.783554327668	626.111350916960	263.410624996755	1036.126122055109	547.180737385968	338.844291359255	1024.154507056427	483.244752238308	346.642585566303	996.342910914519	416.266602019254	336.834943804291	908.121603118155	302.598141759776	282.523485052641	950.000284321154	191.907621143037	360.623722261984	1086.670540690534	413.152896610736	578.457139282930	1015.172941520461	312.911872925548	646.703176998627	1065.743029543132	214.387754431902	596.057830338506	940.722588088143	42.941639330123	581.126510015139	1112.198063987940	102.518552981369	609.947675735080	1028.120539478657	37.074459118907	650.734763117549	1233.252747747669	55.946527260597	630.437460178981	817.759344945934	38.651441874195	403.821656284718	892.404572751942	35.553176667946	323.372537228390	976.423558084777	95.557619997288	351.169455874531	1104.918835678967	41.795820246440	323.884262901057	1182.239102659396	1097.016729284932	165.029399280567	1437.141195980297	1096.612987000862	191.005669313126	799.077057067872	1146.586663063562	668.212346459374	766.529734555524	885.537521624051	662.510636683058	
76	34.908928571429	831.725213064389	1011.068319967492	412.699219674539	1065.459254665320	1426.552513339573	280.686158537435	1106.650756665098	1366.645680230666	468.273862314117	975.301536970819	1450.659567238888	603.602118577357	990.008012229348	1496.065108481742	422.173451050406	1019.704474132998	943.346955591669	589.494573795708	1078.981026159283	963.992242352744	321.767893048196	1087.061714525961	749.514179593777	568.036728012760	1010.748837027900	633.749159993462	621.860187070816	1103.477124480653	586.825331840428	555.330963088529	1114.982366580141	500.731911970369	565.920756118005	1080.832771990365	735.649495835648	344.420733907359	967.350018758732	626.803285021193	264.936502738209	1031.968734460830	546.958125426636	339.668503286216	1019.788385174516	483.203567811642	347.236338630847	991.659032336391	416.738207570459	337.458481189412	903.302423275329	303.197405258394	282.892530866977	945.623919196283	192.267482411583	360.614706516279	1087.497118099790	410.805699241464	578.091707922672	1015.450191972967	311.225057209979	646.598597381233	1063.956471973235	212.367980119065	594.961170513262	936.555198803237	42.946791567012	580.402832839938	1108.458733650916	100.892698896163	608.264897536025	1023.917441694011	36.961661116889	650.111828667312	1229.307226460664	53.483465872424	629.056875980214	813.553366085186	38.767302683950	403.793374176820	888.200106991591	35.596787753840	323.372057574941	972.242601508493	95.600513207500	351.080839513860	1100.688650519538	41.793148695734	323.865945545032	1178.139285666533	1094.715410847638	169.896451972521	1433.166261993662	1092.222692923765	194.430253559927	799.563876999336	1145.644473792521	674.642013202797	767.677135882943	884.479050717646	669.756430005788	
